<svg width="82" height="30" viewBox="0 0 82 30" fill="none" xmlns="http://www.w3.org/2000/svg">
<path fill-rule="evenodd" clip-rule="evenodd" d="M15 7.5H21C21.8284 7.5 22.5 8.17157 22.5 9V21C22.5 21.8284 21.8284 22.5 21 22.5H15C14.1716 22.5 13.5 21.8284 13.5 21V19H12V21C12 22.6569 13.3431 24 15 24H21C22.6569 24 24 22.6569 24 21V9C24 7.34315 22.6569 6 21 6H15C13.3431 6 12 7.34315 12 9V11H13.5V9C13.5 8.17157 14.1716 7.5 15 7.5Z" fill="#E1E1E1"/>
<path d="M18 15.75C18.4142 15.75 18.75 15.4142 18.75 15C18.75 14.5858 18.4142 14.25 18 14.25L18 15.75ZM2.96967 14.4697C2.67678 14.7626 2.67678 15.2374 2.96967 15.5303L7.74264 20.3033C8.03553 20.5962 8.51041 20.5962 8.8033 20.3033C9.09619 20.0104 9.09619 19.5355 8.8033 19.2426L4.56066 15L8.8033 10.7574C9.09619 10.4645 9.09619 9.98959 8.8033 9.6967C8.51041 9.4038 8.03553 9.4038 7.74264 9.6967L2.96967 14.4697ZM18 14.25L3.5 14.25L3.5 15.75L18 15.75L18 14.25Z" fill="#EBEBEB" fill-opacity="0.56"/>
<path d="M39.488 19.768C39.9307 19.768 40.312 19.7173 40.632 19.616C40.952 19.5147 41.2133 19.3733 41.416 19.192C41.624 19.0053 41.776 18.7867 41.872 18.536C41.968 18.28 42.016 18 42.016 17.696C42.016 17.104 41.8053 16.6373 41.384 16.296C40.9627 15.9493 40.3307 15.776 39.488 15.776H37.008V19.768H39.488ZM37.008 10.76V14.672H39.056C39.4933 14.672 39.872 14.624 40.192 14.528C40.5173 14.432 40.784 14.2987 40.992 14.128C41.2053 13.9573 41.3627 13.752 41.464 13.512C41.5653 13.2667 41.616 13 41.616 12.712C41.616 12.0347 41.4133 11.5413 41.008 11.232C40.6027 10.9173 39.9733 10.76 39.12 10.76H37.008ZM39.12 9.536C39.824 9.536 40.4293 9.60533 40.936 9.744C41.448 9.88267 41.8667 10.08 42.192 10.336C42.5227 10.592 42.7653 10.9067 42.92 11.28C43.0747 11.648 43.152 12.064 43.152 12.528C43.152 12.8107 43.1067 13.0827 43.016 13.344C42.9307 13.6 42.8 13.84 42.624 14.064C42.448 14.288 42.224 14.4907 41.952 14.672C41.6853 14.848 41.3707 14.992 41.008 15.104C41.8507 15.264 42.4827 15.5653 42.904 16.008C43.3307 16.4453 43.544 17.0213 43.544 17.736C43.544 18.2213 43.4533 18.664 43.272 19.064C43.096 19.464 42.8347 19.808 42.488 20.096C42.1467 20.384 41.7253 20.608 41.224 20.768C40.7227 20.9227 40.152 21 39.512 21H35.464V9.536H39.12ZM48.4119 19.96C48.6999 19.96 48.9479 19.9253 49.1559 19.856C49.3692 19.7813 49.5452 19.68 49.6839 19.552C49.8225 19.4187 49.9265 19.264 49.9959 19.088C50.0652 18.912 50.0999 18.72 50.0999 18.512C50.0999 18.32 50.0705 18.1413 50.0119 17.976C49.9532 17.8053 49.8545 17.656 49.7159 17.528C49.5825 17.4 49.4065 17.2987 49.1879 17.224C48.9692 17.1493 48.7025 17.112 48.3879 17.112H46.6599V19.96H48.4119ZM48.3879 16.072C48.9479 16.072 49.4172 16.1387 49.7959 16.272C50.1799 16.4053 50.4865 16.584 50.7159 16.808C50.9505 17.032 51.1185 17.2907 51.2199 17.584C51.3212 17.8773 51.3719 18.1813 51.3719 18.496C51.3719 18.8587 51.3079 19.1947 51.1799 19.504C51.0519 19.808 50.8625 20.072 50.6119 20.296C50.3612 20.5147 50.0519 20.688 49.6839 20.816C49.3159 20.9387 48.8919 21 48.4119 21H45.2999V12.896H46.6599V16.072H48.3879ZM54.5799 12.896V21H53.1559V12.896H54.5799ZM63.5028 21H62.1348C62.0174 21 61.9241 20.9707 61.8548 20.912C61.7908 20.848 61.7374 20.7787 61.6948 20.704L59.6548 17.528C59.6334 17.6027 59.6094 17.6773 59.5828 17.752C59.5614 17.8213 59.5294 17.8853 59.4868 17.944L57.5988 20.704C57.5454 20.7787 57.4868 20.848 57.4228 20.912C57.3641 20.9707 57.2814 21 57.1748 21H55.9028L58.7428 16.84L56.0148 12.896H57.3828C57.5001 12.896 57.5854 12.9147 57.6388 12.952C57.6921 12.9893 57.7401 13.0427 57.7828 13.112L59.7748 16.152C59.8174 15.9973 59.8841 15.848 59.9748 15.704L61.7188 13.144C61.7668 13.0693 61.8174 13.0107 61.8708 12.968C61.9294 12.92 61.9988 12.896 62.0788 12.896H63.3908L60.6628 16.768L63.5028 21ZM67.8721 12.768C68.4641 12.768 68.9975 12.8667 69.4721 13.064C69.9468 13.2613 70.3521 13.5413 70.6881 13.904C71.0241 14.2667 71.2801 14.7067 71.4561 15.224C71.6375 15.736 71.7281 16.3093 71.7281 16.944C71.7281 17.584 71.6375 18.16 71.4561 18.672C71.2801 19.184 71.0241 19.6213 70.6881 19.984C70.3521 20.3467 69.9468 20.6267 69.4721 20.824C68.9975 21.016 68.4641 21.112 67.8721 21.112C67.2748 21.112 66.7361 21.016 66.2561 20.824C65.7815 20.6267 65.3761 20.3467 65.0401 19.984C64.7041 19.6213 64.4455 19.184 64.2641 18.672C64.0881 18.16 64.0001 17.584 64.0001 16.944C64.0001 16.3093 64.0881 15.736 64.2641 15.224C64.4455 14.7067 64.7041 14.2667 65.0401 13.904C65.3761 13.5413 65.7815 13.2613 66.2561 13.064C66.7361 12.8667 67.2748 12.768 67.8721 12.768ZM67.8721 20C68.6721 20 69.2695 19.7333 69.6641 19.2C70.0588 18.6613 70.2561 17.912 70.2561 16.952C70.2561 15.9867 70.0588 15.2347 69.6641 14.696C69.2695 14.1573 68.6721 13.888 67.8721 13.888C67.4668 13.888 67.1121 13.9573 66.8081 14.096C66.5095 14.2347 66.2588 14.4347 66.0561 14.696C65.8588 14.9573 65.7095 15.28 65.6081 15.664C65.5121 16.0427 65.4641 16.472 65.4641 16.952C65.4641 17.912 65.6615 18.6613 66.0561 19.2C66.4561 19.7333 67.0615 20 67.8721 20ZM78.8214 19.96V14.016H76.2534C76.2 14.848 76.1254 15.584 76.0294 16.224C75.9334 16.864 75.8214 17.4267 75.6934 17.912C75.5707 18.392 75.432 18.8 75.2774 19.136C75.128 19.472 74.9707 19.7467 74.8054 19.96H78.8214ZM81.6854 19.92V23.352C81.6854 23.4907 81.6454 23.5973 81.5654 23.672C81.4907 23.752 81.392 23.792 81.2694 23.792H80.3974V21H73.5814V23.384C73.5814 23.4853 73.5494 23.5787 73.4854 23.664C73.4267 23.7493 73.328 23.792 73.1894 23.792H72.2934V19.96H72.5574C72.744 19.96 72.928 19.928 73.1094 19.864C73.296 19.8 73.4747 19.68 73.6454 19.504C73.816 19.3227 73.976 19.0693 74.1254 18.744C74.28 18.4187 74.4187 17.9947 74.5414 17.472C74.664 16.9493 74.7707 16.3147 74.8614 15.568C74.952 14.816 75.024 13.9253 75.0774 12.896H80.2054V19.92H81.6854Z" fill="#CFCFCF" fill-opacity="0.83"/>
</svg>
